<svg xmlns="http://www.w3.org/2000/svg" version="1.1" xmlns:xlink="http://www.w3.org/1999/xlink" xmlns:svgjs="http://svgjs.com/svgjs" width="1440" height="560" preserveAspectRatio="none" viewBox="0 0 1440 560">
    <g mask="url(&quot;#SvgjsMask1036&quot;)" fill="none">
        <path d="M-66.45 342.71L-66.45 342.71" stroke="rgba(200, 202, 205, 1)" stroke-width="1.5"></path>
        <path d="M-66.45 342.71L-66.1 542.57" stroke="rgba(200, 202, 205, 1)" stroke-width="1.5"></path>
        <path d="M-66.45 342.71L73.03 555.97" stroke="rgba(200, 202, 205, 1)" stroke-width="1.5"></path>
        <path d="M-66.1 542.57L-66.1 542.57" stroke="rgba(200, 202, 205, 1)" stroke-width="1.5"></path>
        <path d="M-66.1 542.57L-82.76 658.98" stroke="rgba(200, 202, 205, 1)" stroke-width="1.5"></path>
        <path d="M-66.1 542.57L73.03 555.97" stroke="rgba(200, 202, 205, 1)" stroke-width="1.5"></path>
        <path d="M-66.1 542.57L93.11 668.53" stroke="rgba(200, 202, 205, 1)" stroke-width="1.5"></path>
        <path d="M-66.1 542.57L219.74 494.94" stroke="rgba(200, 202, 205, 1)" stroke-width="1.5"></path>
        <path d="M-66.1 542.57L213.01 659.38" stroke="rgba(200, 202, 205, 1)" stroke-width="1.5"></path>
        <path d="M-82.76 658.98L-82.76 658.98" stroke="rgba(200, 202, 205, 1)" stroke-width="1.5"></path>
        <path d="M-82.76 658.98L93.11 668.53" stroke="rgba(200, 202, 205, 1)" stroke-width="1.5"></path>
        <path d="M-82.76 658.98L73.03 555.97" stroke="rgba(200, 202, 205, 1)" stroke-width="1.5"></path>
        <path d="M-82.76 658.98L213.01 659.38" stroke="rgba(200, 202, 205, 1)" stroke-width="1.5"></path>
        <path d="M-82.76 658.98L-66.45 342.71" stroke="rgba(200, 202, 205, 1)" stroke-width="1.5"></path>
        <path d="M73.03 555.97L73.03 555.97" stroke="rgba(200, 202, 205, 1)" stroke-width="1.5"></path>
        <path d="M73.03 555.97L93.11 668.53" stroke="rgba(200, 202, 205, 1)" stroke-width="1.5"></path>
        <path d="M93.11 668.53L93.11 668.53" stroke="rgba(200, 202, 205, 1)" stroke-width="1.5"></path>
        <path d="M93.11 668.53L213.01 659.38" stroke="rgba(200, 202, 205, 1)" stroke-width="1.5"></path>
        <path d="M225.43 351.57L225.43 351.57" stroke="rgba(200, 202, 205, 1)" stroke-width="1.5"></path>
        <path d="M225.43 351.57L219.74 494.94" stroke="rgba(200, 202, 205, 1)" stroke-width="1.5"></path>
        <path d="M225.43 351.57L377.7 354.08" stroke="rgba(200, 202, 205, 1)" stroke-width="1.5"></path>
        <path d="M225.43 351.57L73.03 555.97" stroke="rgba(200, 202, 205, 1)" stroke-width="1.5"></path>
        <path d="M225.43 351.57L493.17 387.55" stroke="rgba(200, 202, 205, 1)" stroke-width="1.5"></path>
        <path d="M219.74 494.94L219.74 494.94" stroke="rgba(200, 202, 205, 1)" stroke-width="1.5"></path>
        <path d="M219.74 494.94L73.03 555.97" stroke="rgba(200, 202, 205, 1)" stroke-width="1.5"></path>
        <path d="M213.01 659.38L213.01 659.38" stroke="rgba(200, 202, 205, 1)" stroke-width="1.5"></path>
        <path d="M213.01 659.38L372.07 668.16" stroke="rgba(200, 202, 205, 1)" stroke-width="1.5"></path>
        <path d="M213.01 659.38L219.74 494.94" stroke="rgba(200, 202, 205, 1)" stroke-width="1.5"></path>
        <path d="M213.01 659.38L73.03 555.97" stroke="rgba(200, 202, 205, 1)" stroke-width="1.5"></path>
        <path d="M377.7 354.08L377.7 354.08" stroke="rgba(200, 202, 205, 1)" stroke-width="1.5"></path>
        <path d="M377.7 354.08L493.17 387.55" stroke="rgba(200, 202, 205, 1)" stroke-width="1.5"></path>
        <path d="M377.7 354.08L496.06 494.52" stroke="rgba(200, 202, 205, 1)" stroke-width="1.5"></path>
        <path d="M377.7 354.08L219.74 494.94" stroke="rgba(200, 202, 205, 1)" stroke-width="1.5"></path>
        <path d="M377.7 354.08L654.27 376.26" stroke="rgba(200, 202, 205, 1)" stroke-width="1.5"></path>
        <path d="M377.7 354.08L372.07 668.16" stroke="rgba(200, 202, 205, 1)" stroke-width="1.5"></path>
        <path d="M372.07 668.16L372.07 668.16" stroke="rgba(200, 202, 205, 1)" stroke-width="1.5"></path>
        <path d="M372.07 668.16L531.01 647.4" stroke="rgba(200, 202, 205, 1)" stroke-width="1.5"></path>
        <path d="M372.07 668.16L496.06 494.52" stroke="rgba(200, 202, 205, 1)" stroke-width="1.5"></path>
        <path d="M372.07 668.16L219.74 494.94" stroke="rgba(200, 202, 205, 1)" stroke-width="1.5"></path>
        <path d="M372.07 668.16L93.11 668.53" stroke="rgba(200, 202, 205, 1)" stroke-width="1.5"></path>
        <path d="M372.07 668.16L493.17 387.55" stroke="rgba(200, 202, 205, 1)" stroke-width="1.5"></path>
        <path d="M493.17 387.55L493.17 387.55" stroke="rgba(200, 202, 205, 1)" stroke-width="1.5"></path>
        <path d="M493.17 387.55L496.06 494.52" stroke="rgba(200, 202, 205, 1)" stroke-width="1.5"></path>
        <path d="M493.17 387.55L654.27 376.26" stroke="rgba(200, 202, 205, 1)" stroke-width="1.5"></path>
        <path d="M496.06 494.52L496.06 494.52" stroke="rgba(200, 202, 205, 1)" stroke-width="1.5"></path>
        <path d="M496.06 494.52L531.01 647.4" stroke="rgba(200, 202, 205, 1)" stroke-width="1.5"></path>
        <path d="M496.06 494.52L682.43 551.65" stroke="rgba(200, 202, 205, 1)" stroke-width="1.5"></path>
        <path d="M496.06 494.52L654.27 376.26" stroke="rgba(200, 202, 205, 1)" stroke-width="1.5"></path>
        <path d="M531.01 647.4L531.01 647.4" stroke="rgba(200, 202, 205, 1)" stroke-width="1.5"></path>
        <path d="M531.01 647.4L683.64 670.88" stroke="rgba(200, 202, 205, 1)" stroke-width="1.5"></path>
        <path d="M686.97 227.61L686.97 227.61" stroke="rgba(200, 202, 205, 1)" stroke-width="1.5"></path>
        <path d="M686.97 227.61L836.76 233.51" stroke="rgba(200, 202, 205, 1)" stroke-width="1.5"></path>
        <path d="M686.97 227.61L654.27 376.26" stroke="rgba(200, 202, 205, 1)" stroke-width="1.5"></path>
        <path d="M686.97 227.61L828.16 104.64" stroke="rgba(200, 202, 205, 1)" stroke-width="1.5"></path>
        <path d="M686.97 227.61L820.88 384.79" stroke="rgba(200, 202, 205, 1)" stroke-width="1.5"></path>
        <path d="M686.97 227.61L493.17 387.55" stroke="rgba(200, 202, 205, 1)" stroke-width="1.5"></path>
        <path d="M654.27 376.26L654.27 376.26" stroke="rgba(200, 202, 205, 1)" stroke-width="1.5"></path>
        <path d="M654.27 376.26L820.88 384.79" stroke="rgba(200, 202, 205, 1)" stroke-width="1.5"></path>
        <path d="M682.43 551.65L682.43 551.65" stroke="rgba(200, 202, 205, 1)" stroke-width="1.5"></path>
        <path d="M682.43 551.65L683.64 670.88" stroke="rgba(200, 202, 205, 1)" stroke-width="1.5"></path>
        <path d="M682.43 551.65L846.22 527.3" stroke="rgba(200, 202, 205, 1)" stroke-width="1.5"></path>
        <path d="M682.43 551.65L654.27 376.26" stroke="rgba(200, 202, 205, 1)" stroke-width="1.5"></path>
        <path d="M683.64 670.88L683.64 670.88" stroke="rgba(200, 202, 205, 1)" stroke-width="1.5"></path>
        <path d="M683.64 670.88L861.48 707.44" stroke="rgba(200, 202, 205, 1)" stroke-width="1.5"></path>
        <path d="M683.64 670.88L846.22 527.3" stroke="rgba(200, 202, 205, 1)" stroke-width="1.5"></path>
        <path d="M828.16 104.64L828.16 104.64" stroke="rgba(200, 202, 205, 1)" stroke-width="1.5"></path>
        <path d="M828.16 104.64L836.76 233.51" stroke="rgba(200, 202, 205, 1)" stroke-width="1.5"></path>
        <path d="M828.16 104.64L963.12 91.98" stroke="rgba(200, 202, 205, 1)" stroke-width="1.5"></path>
        <path d="M828.16 104.64L939.07 206.86" stroke="rgba(200, 202, 205, 1)" stroke-width="1.5"></path>
        <path d="M836.76 233.51L836.76 233.51" stroke="rgba(200, 202, 205, 1)" stroke-width="1.5"></path>
        <path d="M836.76 233.51L939.07 206.86" stroke="rgba(200, 202, 205, 1)" stroke-width="1.5"></path>
        <path d="M820.88 384.79L820.88 384.79" stroke="rgba(200, 202, 205, 1)" stroke-width="1.5"></path>
        <path d="M820.88 384.79L846.22 527.3" stroke="rgba(200, 202, 205, 1)" stroke-width="1.5"></path>
        <path d="M820.88 384.79L836.76 233.51" stroke="rgba(200, 202, 205, 1)" stroke-width="1.5"></path>
        <path d="M820.88 384.79L983.15 357.92" stroke="rgba(200, 202, 205, 1)" stroke-width="1.5"></path>
        <path d="M846.22 527.3L846.22 527.3" stroke="rgba(200, 202, 205, 1)" stroke-width="1.5"></path>
        <path d="M846.22 527.3L941.59 646.35" stroke="rgba(200, 202, 205, 1)" stroke-width="1.5"></path>
        <path d="M861.48 707.44L861.48 707.44" stroke="rgba(200, 202, 205, 1)" stroke-width="1.5"></path>
        <path d="M861.48 707.44L941.59 646.35" stroke="rgba(200, 202, 205, 1)" stroke-width="1.5"></path>
        <path d="M861.48 707.44L846.22 527.3" stroke="rgba(200, 202, 205, 1)" stroke-width="1.5"></path>
        <path d="M1000.28 -45.26L1000.28 -45.26" stroke="rgba(200, 202, 205, 1)" stroke-width="1.5"></path>
        <path d="M1000.28 -45.26L1094.38 -88.62" stroke="rgba(200, 202, 205, 1)" stroke-width="1.5"></path>
        <path d="M1000.28 -45.26L963.12 91.98" stroke="rgba(200, 202, 205, 1)" stroke-width="1.5"></path>
        <path d="M963.12 91.98L963.12 91.98" stroke="rgba(200, 202, 205, 1)" stroke-width="1.5"></path>
        <path d="M963.12 91.98L939.07 206.86" stroke="rgba(200, 202, 205, 1)" stroke-width="1.5"></path>
        <path d="M963.12 91.98L1090.87 86.74" stroke="rgba(200, 202, 205, 1)" stroke-width="1.5"></path>
        <path d="M939.07 206.86L939.07 206.86" stroke="rgba(200, 202, 205, 1)" stroke-width="1.5"></path>
        <path d="M983.15 357.92L983.15 357.92" stroke="rgba(200, 202, 205, 1)" stroke-width="1.5"></path>
        <path d="M983.15 357.92L1138.49 379.45" stroke="rgba(200, 202, 205, 1)" stroke-width="1.5"></path>
        <path d="M983.15 357.92L939.07 206.86" stroke="rgba(200, 202, 205, 1)" stroke-width="1.5"></path>
        <path d="M983.15 357.92L836.76 233.51" stroke="rgba(200, 202, 205, 1)" stroke-width="1.5"></path>
        <path d="M983.15 357.92L846.22 527.3" stroke="rgba(200, 202, 205, 1)" stroke-width="1.5"></path>
        <path d="M941.59 646.35L941.59 646.35" stroke="rgba(200, 202, 205, 1)" stroke-width="1.5"></path>
        <path d="M941.59 646.35L1127.75 662.7" stroke="rgba(200, 202, 205, 1)" stroke-width="1.5"></path>
        <path d="M941.59 646.35L683.64 670.88" stroke="rgba(200, 202, 205, 1)" stroke-width="1.5"></path>
        <path d="M941.59 646.35L682.43 551.65" stroke="rgba(200, 202, 205, 1)" stroke-width="1.5"></path>
        <path d="M941.59 646.35L820.88 384.79" stroke="rgba(200, 202, 205, 1)" stroke-width="1.5"></path>
        <path d="M1094.38 -88.62L1094.38 -88.62" stroke="rgba(200, 202, 205, 1)" stroke-width="1.5"></path>
        <path d="M1094.38 -88.62L1090.87 86.74" stroke="rgba(200, 202, 205, 1)" stroke-width="1.5"></path>
        <path d="M1094.38 -88.62L1281.4 -40.43" stroke="rgba(200, 202, 205, 1)" stroke-width="1.5"></path>
        <path d="M1090.87 86.74L1090.87 86.74" stroke="rgba(200, 202, 205, 1)" stroke-width="1.5"></path>
        <path d="M1152.11 211.14L1152.11 211.14" stroke="rgba(200, 202, 205, 1)" stroke-width="1.5"></path>
        <path d="M1152.11 211.14L1090.87 86.74" stroke="rgba(200, 202, 205, 1)" stroke-width="1.5"></path>
        <path d="M1152.11 211.14L1311.84 199.64" stroke="rgba(200, 202, 205, 1)" stroke-width="1.5"></path>
        <path d="M1152.11 211.14L1138.49 379.45" stroke="rgba(200, 202, 205, 1)" stroke-width="1.5"></path>
        <path d="M1152.11 211.14L1266.79 374.95" stroke="rgba(200, 202, 205, 1)" stroke-width="1.5"></path>
        <path d="M1152.11 211.14L939.07 206.86" stroke="rgba(200, 202, 205, 1)" stroke-width="1.5"></path>
        <path d="M1152.11 211.14L963.12 91.98" stroke="rgba(200, 202, 205, 1)" stroke-width="1.5"></path>
        <path d="M1138.49 379.45L1138.49 379.45" stroke="rgba(200, 202, 205, 1)" stroke-width="1.5"></path>
        <path d="M1138.49 379.45L1266.79 374.95" stroke="rgba(200, 202, 205, 1)" stroke-width="1.5"></path>
        <path d="M1127.75 662.7L1127.75 662.7" stroke="rgba(200, 202, 205, 1)" stroke-width="1.5"></path>
        <path d="M1127.75 662.7L1281.41 693.1" stroke="rgba(200, 202, 205, 1)" stroke-width="1.5"></path>
        <path d="M1127.75 662.7L1255.13 507.84" stroke="rgba(200, 202, 205, 1)" stroke-width="1.5"></path>
        <path d="M1127.75 662.7L1392.34 674.05" stroke="rgba(200, 202, 205, 1)" stroke-width="1.5"></path>
        <path d="M1127.75 662.7L861.48 707.44" stroke="rgba(200, 202, 205, 1)" stroke-width="1.5"></path>
        <path d="M1127.75 662.7L1138.49 379.45" stroke="rgba(200, 202, 205, 1)" stroke-width="1.5"></path>
        <path d="M1281.4 -40.43L1281.4 -40.43" stroke="rgba(200, 202, 205, 1)" stroke-width="1.5"></path>
        <path d="M1281.4 -40.43L1302.6 40.21" stroke="rgba(200, 202, 205, 1)" stroke-width="1.5"></path>
        <path d="M1281.4 -40.43L1405.1 -93.08" stroke="rgba(200, 202, 205, 1)" stroke-width="1.5"></path>
        <path d="M1281.4 -40.43L1453.5 99.19" stroke="rgba(200, 202, 205, 1)" stroke-width="1.5"></path>
        <path d="M1281.4 -40.43L1090.87 86.74" stroke="rgba(200, 202, 205, 1)" stroke-width="1.5"></path>
        <path d="M1302.6 40.21L1302.6 40.21" stroke="rgba(200, 202, 205, 1)" stroke-width="1.5"></path>
        <path d="M1302.6 40.21L1311.84 199.64" stroke="rgba(200, 202, 205, 1)" stroke-width="1.5"></path>
        <path d="M1302.6 40.21L1453.5 99.19" stroke="rgba(200, 202, 205, 1)" stroke-width="1.5"></path>
        <path d="M1302.6 40.21L1405.1 -93.08" stroke="rgba(200, 202, 205, 1)" stroke-width="1.5"></path>
        <path d="M1302.6 40.21L1448.24 188.51" stroke="rgba(200, 202, 205, 1)" stroke-width="1.5"></path>
        <path d="M1311.84 199.64L1311.84 199.64" stroke="rgba(200, 202, 205, 1)" stroke-width="1.5"></path>
        <path d="M1311.84 199.64L1448.24 188.51" stroke="rgba(200, 202, 205, 1)" stroke-width="1.5"></path>
        <path d="M1311.84 199.64L1453.5 99.19" stroke="rgba(200, 202, 205, 1)" stroke-width="1.5"></path>
        <path d="M1266.79 374.95L1266.79 374.95" stroke="rgba(200, 202, 205, 1)" stroke-width="1.5"></path>
        <path d="M1266.79 374.95L1255.13 507.84" stroke="rgba(200, 202, 205, 1)" stroke-width="1.5"></path>
        <path d="M1266.79 374.95L1443 346.27" stroke="rgba(200, 202, 205, 1)" stroke-width="1.5"></path>
        <path d="M1266.79 374.95L1311.84 199.64" stroke="rgba(200, 202, 205, 1)" stroke-width="1.5"></path>
        <path d="M1255.13 507.84L1255.13 507.84" stroke="rgba(200, 202, 205, 1)" stroke-width="1.5"></path>
        <path d="M1255.13 507.84L1138.49 379.45" stroke="rgba(200, 202, 205, 1)" stroke-width="1.5"></path>
        <path d="M1255.13 507.84L1281.41 693.1" stroke="rgba(200, 202, 205, 1)" stroke-width="1.5"></path>
        <path d="M1281.41 693.1L1281.41 693.1" stroke="rgba(200, 202, 205, 1)" stroke-width="1.5"></path>
        <path d="M1281.41 693.1L1392.34 674.05" stroke="rgba(200, 202, 205, 1)" stroke-width="1.5"></path>
        <path d="M1405.1 -93.08L1405.1 -93.08" stroke="rgba(200, 202, 205, 1)" stroke-width="1.5"></path>
        <path d="M1405.1 -93.08L1571.64 -77.26" stroke="rgba(200, 202, 205, 1)" stroke-width="1.5"></path>
        <path d="M1453.5 99.19L1453.5 99.19" stroke="rgba(200, 202, 205, 1)" stroke-width="1.5"></path>
        <path d="M1453.5 99.19L1448.24 188.51" stroke="rgba(200, 202, 205, 1)" stroke-width="1.5"></path>
        <path d="M1453.5 99.19L1584.71 54.29" stroke="rgba(200, 202, 205, 1)" stroke-width="1.5"></path>
        <path d="M1448.24 188.51L1448.24 188.51" stroke="rgba(200, 202, 205, 1)" stroke-width="1.5"></path>
        <path d="M1448.24 188.51L1601.19 209.84" stroke="rgba(200, 202, 205, 1)" stroke-width="1.5"></path>
        <path d="M1443 346.27L1443 346.27" stroke="rgba(200, 202, 205, 1)" stroke-width="1.5"></path>
        <path d="M1443 346.27L1585.37 374.44" stroke="rgba(200, 202, 205, 1)" stroke-width="1.5"></path>
        <path d="M1392.34 674.05L1392.34 674.05" stroke="rgba(200, 202, 205, 1)" stroke-width="1.5"></path>
        <path d="M1392.34 674.05L1546.4 707.85" stroke="rgba(200, 202, 205, 1)" stroke-width="1.5"></path>
        <path d="M1392.34 674.05L1255.13 507.84" stroke="rgba(200, 202, 205, 1)" stroke-width="1.5"></path>
        <path d="M1392.34 674.05L1598.4 543.47" stroke="rgba(200, 202, 205, 1)" stroke-width="1.5"></path>
        <path d="M1571.64 -77.26L1571.64 -77.26" stroke="rgba(200, 202, 205, 1)" stroke-width="1.5"></path>
        <path d="M1571.64 -77.26L1584.71 54.29" stroke="rgba(200, 202, 205, 1)" stroke-width="1.5"></path>
        <path d="M1571.64 -77.26L1453.5 99.19" stroke="rgba(200, 202, 205, 1)" stroke-width="1.5"></path>
        <path d="M1571.64 -77.26L1601.19 209.84" stroke="rgba(200, 202, 205, 1)" stroke-width="1.5"></path>
        <path d="M1571.64 -77.26L1281.4 -40.43" stroke="rgba(200, 202, 205, 1)" stroke-width="1.5"></path>
        <path d="M1571.64 -77.26L1448.24 188.51" stroke="rgba(200, 202, 205, 1)" stroke-width="1.5"></path>
        <path d="M1584.71 54.29L1584.71 54.29" stroke="rgba(200, 202, 205, 1)" stroke-width="1.5"></path>
        <path d="M1584.71 54.29L1601.19 209.84" stroke="rgba(200, 202, 205, 1)" stroke-width="1.5"></path>
        <path d="M1584.71 54.29L1448.24 188.51" stroke="rgba(200, 202, 205, 1)" stroke-width="1.5"></path>
        <path d="M1584.71 54.29L1405.1 -93.08" stroke="rgba(200, 202, 205, 1)" stroke-width="1.5"></path>
        <path d="M1601.19 209.84L1601.19 209.84" stroke="rgba(200, 202, 205, 1)" stroke-width="1.5"></path>
        <path d="M1585.37 374.44L1585.37 374.44" stroke="rgba(200, 202, 205, 1)" stroke-width="1.5"></path>
        <path d="M1585.37 374.44L1601.19 209.84" stroke="rgba(200, 202, 205, 1)" stroke-width="1.5"></path>
        <path d="M1585.37 374.44L1598.4 543.47" stroke="rgba(200, 202, 205, 1)" stroke-width="1.5"></path>
        <path d="M1585.37 374.44L1448.24 188.51" stroke="rgba(200, 202, 205, 1)" stroke-width="1.5"></path>
        <path d="M1598.4 543.47L1598.4 543.47" stroke="rgba(200, 202, 205, 1)" stroke-width="1.5"></path>
        <path d="M1598.4 543.47L1546.4 707.85" stroke="rgba(200, 202, 205, 1)" stroke-width="1.5"></path>
        <path d="M1546.4 707.85L1546.4 707.85" stroke="rgba(200, 202, 205, 1)" stroke-width="1.5"></path>
        <path d="M1546.4 707.85L1281.41 693.1" stroke="rgba(200, 202, 205, 1)" stroke-width="1.5"></path>
        <path d="M1546.4 707.85L1585.37 374.44" stroke="rgba(200, 202, 205, 1)" stroke-width="1.5"></path>
        <path d="M1546.4 707.85L1255.13 507.84" stroke="rgba(200, 202, 205, 1)" stroke-width="1.5"></path>
        <circle r="5" cx="-66.45" cy="342.71" fill="rgba(200, 202, 205, 1)"></circle>
        <circle r="5" cx="-66.1" cy="542.57" fill="rgba(200, 202, 205, 1)"></circle>
        <circle r="5" cx="-82.76" cy="658.98" fill="rgba(200, 202, 205, 1)"></circle>
        <circle r="5" cx="73.03" cy="555.97" fill="rgba(200, 202, 205, 1)"></circle>
        <circle r="5" cx="93.11" cy="668.53" fill="rgba(200, 202, 205, 1)"></circle>
        <circle r="5" cx="225.43" cy="351.57" fill="rgba(200, 202, 205, 1)"></circle>
        <circle r="5" cx="219.74" cy="494.94" fill="rgba(200, 202, 205, 1)"></circle>
        <circle r="5" cx="213.01" cy="659.38" fill="rgba(200, 202, 205, 1)"></circle>
        <circle r="5" cx="377.7" cy="354.08" fill="rgba(200, 202, 205, 1)"></circle>
        <circle r="5" cx="372.07" cy="668.16" fill="rgba(200, 202, 205, 1)"></circle>
        <circle r="5" cx="493.17" cy="387.55" fill="rgba(200, 202, 205, 1)"></circle>
        <circle r="5" cx="496.06" cy="494.52" fill="rgba(200, 202, 205, 1)"></circle>
        <circle r="5" cx="531.01" cy="647.4" fill="rgba(200, 202, 205, 1)"></circle>
        <circle r="5" cx="686.97" cy="227.61" fill="rgba(200, 202, 205, 1)"></circle>
        <circle r="5" cx="654.27" cy="376.26" fill="rgba(200, 202, 205, 1)"></circle>
        <circle r="5" cx="682.43" cy="551.65" fill="rgba(200, 202, 205, 1)"></circle>
        <circle r="5" cx="683.64" cy="670.88" fill="rgba(200, 202, 205, 1)"></circle>
        <circle r="5" cx="828.16" cy="104.64" fill="rgba(200, 202, 205, 1)"></circle>
        <circle r="5" cx="836.76" cy="233.51" fill="rgba(200, 202, 205, 1)"></circle>
        <circle r="5" cx="820.88" cy="384.79" fill="rgba(200, 202, 205, 1)"></circle>
        <circle r="5" cx="846.22" cy="527.3" fill="rgba(200, 202, 205, 1)"></circle>
        <circle r="5" cx="861.48" cy="707.44" fill="rgba(200, 202, 205, 1)"></circle>
        <circle r="5" cx="1000.28" cy="-45.26" fill="rgba(200, 202, 205, 1)"></circle>
        <circle r="5" cx="963.12" cy="91.98" fill="rgba(200, 202, 205, 1)"></circle>
        <circle r="5" cx="939.07" cy="206.86" fill="rgba(200, 202, 205, 1)"></circle>
        <circle r="5" cx="983.15" cy="357.92" fill="rgba(200, 202, 205, 1)"></circle>
        <circle r="5" cx="941.59" cy="646.35" fill="rgba(200, 202, 205, 1)"></circle>
        <circle r="5" cx="1094.38" cy="-88.62" fill="rgba(200, 202, 205, 1)"></circle>
        <circle r="5" cx="1090.87" cy="86.74" fill="rgba(200, 202, 205, 1)"></circle>
        <circle r="5" cx="1152.11" cy="211.14" fill="rgba(200, 202, 205, 1)"></circle>
        <circle r="5" cx="1138.49" cy="379.45" fill="rgba(200, 202, 205, 1)"></circle>
        <circle r="5" cx="1127.75" cy="662.7" fill="rgba(200, 202, 205, 1)"></circle>
        <circle r="5" cx="1281.4" cy="-40.43" fill="rgba(200, 202, 205, 1)"></circle>
        <circle r="5" cx="1302.6" cy="40.21" fill="rgba(200, 202, 205, 1)"></circle>
        <circle r="5" cx="1311.84" cy="199.64" fill="rgba(200, 202, 205, 1)"></circle>
        <circle r="5" cx="1266.79" cy="374.95" fill="rgba(200, 202, 205, 1)"></circle>
        <circle r="5" cx="1255.13" cy="507.84" fill="rgba(200, 202, 205, 1)"></circle>
        <circle r="5" cx="1281.41" cy="693.1" fill="rgba(200, 202, 205, 1)"></circle>
        <circle r="5" cx="1405.1" cy="-93.08" fill="rgba(200, 202, 205, 1)"></circle>
        <circle r="5" cx="1453.5" cy="99.19" fill="rgba(200, 202, 205, 1)"></circle>
        <circle r="5" cx="1448.24" cy="188.51" fill="rgba(200, 202, 205, 1)"></circle>
        <circle r="5" cx="1443" cy="346.27" fill="rgba(200, 202, 205, 1)"></circle>
        <circle r="5" cx="1392.34" cy="674.05" fill="rgba(200, 202, 205, 1)"></circle>
        <circle r="5" cx="1571.64" cy="-77.26" fill="rgba(200, 202, 205, 1)"></circle>
        <circle r="5" cx="1584.71" cy="54.29" fill="rgba(200, 202, 205, 1)"></circle>
        <circle r="5" cx="1601.19" cy="209.84" fill="rgba(200, 202, 205, 1)"></circle>
        <circle r="5" cx="1585.37" cy="374.44" fill="rgba(200, 202, 205, 1)"></circle>
        <circle r="5" cx="1598.4" cy="543.47" fill="rgba(200, 202, 205, 1)"></circle>
        <circle r="5" cx="1546.4" cy="707.85" fill="rgba(200, 202, 205, 1)"></circle>
        <path d="M-79.06 523.13L-79.06 523.13" stroke="hsl(228, 2.6%, 80.8%)" stroke-width="1.5"></path>
        <path d="M-79.06 523.13L47.61 553.09" stroke="hsl(228, 2.6%, 80.8%)" stroke-width="1.5"></path>
        <path d="M-79.06 523.13L-81.64 666.11" stroke="hsl(228, 2.6%, 80.8%)" stroke-width="1.5"></path>
        <path d="M-81.64 666.11L-81.64 666.11" stroke="hsl(228, 2.6%, 80.8%)" stroke-width="1.5"></path>
        <path d="M-81.64 666.11L77.15 664.71" stroke="hsl(228, 2.6%, 80.8%)" stroke-width="1.5"></path>
        <path d="M-81.64 666.11L47.61 553.09" stroke="hsl(228, 2.6%, 80.8%)" stroke-width="1.5"></path>
        <path d="M-81.64 666.11L206.77 496.43" stroke="hsl(228, 2.6%, 80.8%)" stroke-width="1.5"></path>
        <path d="M-81.64 666.11L252.32 642.65" stroke="hsl(228, 2.6%, 80.8%)" stroke-width="1.5"></path>
        <path d="M-81.64 666.11L350.94 666.62" stroke="hsl(228, 2.6%, 80.8%)" stroke-width="1.5"></path>
        <path d="M77.15 664.71L77.15 664.71" stroke="hsl(228, 2.6%, 80.8%)" stroke-width="1.5"></path>
        <path d="M77.15 664.71L47.61 553.09" stroke="hsl(228, 2.6%, 80.8%)" stroke-width="1.5"></path>
        <path d="M497.83 692.27L497.83 692.27" stroke="hsl(228, 2.6%, 80.8%)" stroke-width="1.5"></path>
        <path d="M497.83 692.27L350.94 666.62" stroke="hsl(228, 2.6%, 80.8%)" stroke-width="1.5"></path>
        <path d="M497.83 692.27L496.2 543.1" stroke="hsl(228, 2.6%, 80.8%)" stroke-width="1.5"></path>
        <path d="M497.83 692.27L400.38 553.9" stroke="hsl(228, 2.6%, 80.8%)" stroke-width="1.5"></path>
        <path d="M497.83 692.27L687.26 697.48" stroke="hsl(228, 2.6%, 80.8%)" stroke-width="1.5"></path>
        <path d="M497.83 692.27L252.32 642.65" stroke="hsl(228, 2.6%, 80.8%)" stroke-width="1.5"></path>
        <path d="M497.83 692.27L712.43 492.35" stroke="hsl(228, 2.6%, 80.8%)" stroke-width="1.5"></path>
        <path d="M1281.27 78.82L1281.27 78.82" stroke="hsl(228, 2.6%, 80.8%)" stroke-width="1.5"></path>
        <path d="M1281.27 78.82L1273.11 245.53" stroke="hsl(228, 2.6%, 80.8%)" stroke-width="1.5"></path>
        <path d="M1281.27 78.82L1451.41 40.33" stroke="hsl(228, 2.6%, 80.8%)" stroke-width="1.5"></path>
        <path d="M1444 201.67L1444 201.67" stroke="hsl(228, 2.6%, 80.8%)" stroke-width="1.5"></path>
        <path d="M1444 201.67L1552.18 111.19" stroke="hsl(228, 2.6%, 80.8%)" stroke-width="1.5"></path>
        <path d="M1444 201.67L1451.41 40.33" stroke="hsl(228, 2.6%, 80.8%)" stroke-width="1.5"></path>
        <path d="M47.61 553.09L47.61 553.09" stroke="hsl(228, 2.6%, 80.8%)" stroke-width="1.5"></path>
        <path d="M47.61 553.09L206.77 496.43" stroke="hsl(228, 2.6%, 80.8%)" stroke-width="1.5"></path>
        <path d="M206.77 496.43L206.77 496.43" stroke="hsl(228, 2.6%, 80.8%)" stroke-width="1.5"></path>
        <path d="M206.77 496.43L252.32 642.65" stroke="hsl(228, 2.6%, 80.8%)" stroke-width="1.5"></path>
        <path d="M252.32 642.65L252.32 642.65" stroke="hsl(228, 2.6%, 80.8%)" stroke-width="1.5"></path>
        <path d="M252.32 642.65L350.94 666.62" stroke="hsl(228, 2.6%, 80.8%)" stroke-width="1.5"></path>
        <path d="M252.32 642.65L400.38 553.9" stroke="hsl(228, 2.6%, 80.8%)" stroke-width="1.5"></path>
        <path d="M400.38 553.9L400.38 553.9" stroke="hsl(228, 2.6%, 80.8%)" stroke-width="1.5"></path>
        <path d="M400.38 553.9L496.2 543.1" stroke="hsl(228, 2.6%, 80.8%)" stroke-width="1.5"></path>
        <path d="M400.38 553.9L350.94 666.62" stroke="hsl(228, 2.6%, 80.8%)" stroke-width="1.5"></path>
        <path d="M350.94 666.62L350.94 666.62" stroke="hsl(228, 2.6%, 80.8%)" stroke-width="1.5"></path>
        <path d="M350.94 666.62L496.2 543.1" stroke="hsl(228, 2.6%, 80.8%)" stroke-width="1.5"></path>
        <path d="M350.94 666.62L206.77 496.43" stroke="hsl(228, 2.6%, 80.8%)" stroke-width="1.5"></path>
        <path d="M496.2 543.1L496.2 543.1" stroke="hsl(228, 2.6%, 80.8%)" stroke-width="1.5"></path>
        <path d="M672.76 393.39L672.76 393.39" stroke="hsl(228, 2.6%, 80.8%)" stroke-width="1.5"></path>
        <path d="M672.76 393.39L712.43 492.35" stroke="hsl(228, 2.6%, 80.8%)" stroke-width="1.5"></path>
        <path d="M672.76 393.39L821.51 365.47" stroke="hsl(228, 2.6%, 80.8%)" stroke-width="1.5"></path>
        <path d="M672.76 393.39L831.79 502.32" stroke="hsl(228, 2.6%, 80.8%)" stroke-width="1.5"></path>
        <path d="M712.43 492.35L712.43 492.35" stroke="hsl(228, 2.6%, 80.8%)" stroke-width="1.5"></path>
        <path d="M712.43 492.35L831.79 502.32" stroke="hsl(228, 2.6%, 80.8%)" stroke-width="1.5"></path>
        <path d="M712.43 492.35L821.51 365.47" stroke="hsl(228, 2.6%, 80.8%)" stroke-width="1.5"></path>
        <path d="M687.26 697.48L687.26 697.48" stroke="hsl(228, 2.6%, 80.8%)" stroke-width="1.5"></path>
        <path d="M687.26 697.48L859.88 706.38" stroke="hsl(228, 2.6%, 80.8%)" stroke-width="1.5"></path>
        <path d="M687.26 697.48L712.43 492.35" stroke="hsl(228, 2.6%, 80.8%)" stroke-width="1.5"></path>
        <path d="M687.26 697.48L831.79 502.32" stroke="hsl(228, 2.6%, 80.8%)" stroke-width="1.5"></path>
        <path d="M687.26 697.48L496.2 543.1" stroke="hsl(228, 2.6%, 80.8%)" stroke-width="1.5"></path>
        <path d="M687.26 697.48L948.49 661.47" stroke="hsl(228, 2.6%, 80.8%)" stroke-width="1.5"></path>
        <path d="M821.51 365.47L821.51 365.47" stroke="hsl(228, 2.6%, 80.8%)" stroke-width="1.5"></path>
        <path d="M821.51 365.47L831.79 502.32" stroke="hsl(228, 2.6%, 80.8%)" stroke-width="1.5"></path>
        <path d="M821.51 365.47L966.37 347.24" stroke="hsl(228, 2.6%, 80.8%)" stroke-width="1.5"></path>
        <path d="M821.51 365.47L983.53 549.96" stroke="hsl(228, 2.6%, 80.8%)" stroke-width="1.5"></path>
        <path d="M831.79 502.32L831.79 502.32" stroke="hsl(228, 2.6%, 80.8%)" stroke-width="1.5"></path>
        <path d="M831.79 502.32L983.53 549.96" stroke="hsl(228, 2.6%, 80.8%)" stroke-width="1.5"></path>
        <path d="M831.79 502.32L948.49 661.47" stroke="hsl(228, 2.6%, 80.8%)" stroke-width="1.5"></path>
        <path d="M831.79 502.32L966.37 347.24" stroke="hsl(228, 2.6%, 80.8%)" stroke-width="1.5"></path>
        <path d="M859.88 706.38L859.88 706.38" stroke="hsl(228, 2.6%, 80.8%)" stroke-width="1.5"></path>
        <path d="M859.88 706.38L948.49 661.47" stroke="hsl(228, 2.6%, 80.8%)" stroke-width="1.5"></path>
        <path d="M859.88 706.38L983.53 549.96" stroke="hsl(228, 2.6%, 80.8%)" stroke-width="1.5"></path>
        <path d="M966.37 347.24L966.37 347.24" stroke="hsl(228, 2.6%, 80.8%)" stroke-width="1.5"></path>
        <path d="M966.37 347.24L1159.44 378.18" stroke="hsl(228, 2.6%, 80.8%)" stroke-width="1.5"></path>
        <path d="M983.53 549.96L983.53 549.96" stroke="hsl(228, 2.6%, 80.8%)" stroke-width="1.5"></path>
        <path d="M983.53 549.96L1092.09 543.11" stroke="hsl(228, 2.6%, 80.8%)" stroke-width="1.5"></path>
        <path d="M983.53 549.96L948.49 661.47" stroke="hsl(228, 2.6%, 80.8%)" stroke-width="1.5"></path>
        <path d="M983.53 549.96L1107.9 683.78" stroke="hsl(228, 2.6%, 80.8%)" stroke-width="1.5"></path>
        <path d="M948.49 661.47L948.49 661.47" stroke="hsl(228, 2.6%, 80.8%)" stroke-width="1.5"></path>
        <path d="M948.49 661.47L1107.9 683.78" stroke="hsl(228, 2.6%, 80.8%)" stroke-width="1.5"></path>
        <path d="M948.49 661.47L1092.09 543.11" stroke="hsl(228, 2.6%, 80.8%)" stroke-width="1.5"></path>
        <path d="M1161.55 -63.86L1161.55 -63.86" stroke="hsl(228, 2.6%, 80.8%)" stroke-width="1.5"></path>
        <path d="M1161.55 -63.86L1254.68 -100.57" stroke="hsl(228, 2.6%, 80.8%)" stroke-width="1.5"></path>
        <path d="M1161.55 -63.86L1281.27 78.82" stroke="hsl(228, 2.6%, 80.8%)" stroke-width="1.5"></path>
        <path d="M1118.92 220.79L1118.92 220.79" stroke="hsl(228, 2.6%, 80.8%)" stroke-width="1.5"></path>
        <path d="M1118.92 220.79L1273.11 245.53" stroke="hsl(228, 2.6%, 80.8%)" stroke-width="1.5"></path>
        <path d="M1159.44 378.18L1159.44 378.18" stroke="hsl(228, 2.6%, 80.8%)" stroke-width="1.5"></path>
        <path d="M1159.44 378.18L1248.29 353.11" stroke="hsl(228, 2.6%, 80.8%)" stroke-width="1.5"></path>
        <path d="M1159.44 378.18L1118.92 220.79" stroke="hsl(228, 2.6%, 80.8%)" stroke-width="1.5"></path>
        <path d="M1159.44 378.18L1273.11 245.53" stroke="hsl(228, 2.6%, 80.8%)" stroke-width="1.5"></path>
        <path d="M1159.44 378.18L1259.12 523.41" stroke="hsl(228, 2.6%, 80.8%)" stroke-width="1.5"></path>
        <path d="M1159.44 378.18L1092.09 543.11" stroke="hsl(228, 2.6%, 80.8%)" stroke-width="1.5"></path>
        <path d="M1092.09 543.11L1092.09 543.11" stroke="hsl(228, 2.6%, 80.8%)" stroke-width="1.5"></path>
        <path d="M1092.09 543.11L1107.9 683.78" stroke="hsl(228, 2.6%, 80.8%)" stroke-width="1.5"></path>
        <path d="M1092.09 543.11L1259.12 523.41" stroke="hsl(228, 2.6%, 80.8%)" stroke-width="1.5"></path>
        <path d="M1107.9 683.78L1107.9 683.78" stroke="hsl(228, 2.6%, 80.8%)" stroke-width="1.5"></path>
        <path d="M1107.9 683.78L1291.6 688.2" stroke="hsl(228, 2.6%, 80.8%)" stroke-width="1.5"></path>
        <path d="M1107.9 683.78L1259.12 523.41" stroke="hsl(228, 2.6%, 80.8%)" stroke-width="1.5"></path>
        <path d="M1254.68 -100.57L1254.68 -100.57" stroke="hsl(228, 2.6%, 80.8%)" stroke-width="1.5"></path>
        <path d="M1254.68 -100.57L1393 -75.04" stroke="hsl(228, 2.6%, 80.8%)" stroke-width="1.5"></path>
        <path d="M1254.68 -100.57L1281.27 78.82" stroke="hsl(228, 2.6%, 80.8%)" stroke-width="1.5"></path>
        <path d="M1254.68 -100.57L1451.41 40.33" stroke="hsl(228, 2.6%, 80.8%)" stroke-width="1.5"></path>
        <path d="M1254.68 -100.57L1546.04 -95.84" stroke="hsl(228, 2.6%, 80.8%)" stroke-width="1.5"></path>
        <path d="M1254.68 -100.57L1273.11 245.53" stroke="hsl(228, 2.6%, 80.8%)" stroke-width="1.5"></path>
        <path d="M1273.11 245.53L1273.11 245.53" stroke="hsl(228, 2.6%, 80.8%)" stroke-width="1.5"></path>
        <path d="M1273.11 245.53L1248.29 353.11" stroke="hsl(228, 2.6%, 80.8%)" stroke-width="1.5"></path>
        <path d="M1273.11 245.53L1444 201.67" stroke="hsl(228, 2.6%, 80.8%)" stroke-width="1.5"></path>
        <path d="M1248.29 353.11L1248.29 353.11" stroke="hsl(228, 2.6%, 80.8%)" stroke-width="1.5"></path>
        <path d="M1248.29 353.11L1259.12 523.41" stroke="hsl(228, 2.6%, 80.8%)" stroke-width="1.5"></path>
        <path d="M1248.29 353.11L1419.05 362.52" stroke="hsl(228, 2.6%, 80.8%)" stroke-width="1.5"></path>
        <path d="M1248.29 353.11L1118.92 220.79" stroke="hsl(228, 2.6%, 80.8%)" stroke-width="1.5"></path>
        <path d="M1248.29 353.11L1092.09 543.11" stroke="hsl(228, 2.6%, 80.8%)" stroke-width="1.5"></path>
        <path d="M1259.12 523.41L1259.12 523.41" stroke="hsl(228, 2.6%, 80.8%)" stroke-width="1.5"></path>
        <path d="M1259.12 523.41L1291.6 688.2" stroke="hsl(228, 2.6%, 80.8%)" stroke-width="1.5"></path>
        <path d="M1259.12 523.41L1457.64 546.68" stroke="hsl(228, 2.6%, 80.8%)" stroke-width="1.5"></path>
        <path d="M1291.6 688.2L1291.6 688.2" stroke="hsl(228, 2.6%, 80.8%)" stroke-width="1.5"></path>
        <path d="M1291.6 688.2L1396.7 682.31" stroke="hsl(228, 2.6%, 80.8%)" stroke-width="1.5"></path>
        <path d="M1393 -75.04L1393 -75.04" stroke="hsl(228, 2.6%, 80.8%)" stroke-width="1.5"></path>
        <path d="M1393 -75.04L1451.41 40.33" stroke="hsl(228, 2.6%, 80.8%)" stroke-width="1.5"></path>
        <path d="M1393 -75.04L1546.04 -95.84" stroke="hsl(228, 2.6%, 80.8%)" stroke-width="1.5"></path>
        <path d="M1393 -75.04L1281.27 78.82" stroke="hsl(228, 2.6%, 80.8%)" stroke-width="1.5"></path>
        <path d="M1393 -75.04L1161.55 -63.86" stroke="hsl(228, 2.6%, 80.8%)" stroke-width="1.5"></path>
        <path d="M1393 -75.04L1552.18 111.19" stroke="hsl(228, 2.6%, 80.8%)" stroke-width="1.5"></path>
        <path d="M1451.41 40.33L1451.41 40.33" stroke="hsl(228, 2.6%, 80.8%)" stroke-width="1.5"></path>
        <path d="M1451.41 40.33L1552.18 111.19" stroke="hsl(228, 2.6%, 80.8%)" stroke-width="1.5"></path>
        <path d="M1451.41 40.33L1546.04 -95.84" stroke="hsl(228, 2.6%, 80.8%)" stroke-width="1.5"></path>
        <path d="M1451.41 40.33L1608.4 188.85" stroke="hsl(228, 2.6%, 80.8%)" stroke-width="1.5"></path>
        <path d="M1419.05 362.52L1419.05 362.52" stroke="hsl(228, 2.6%, 80.8%)" stroke-width="1.5"></path>
        <path d="M1419.05 362.52L1444 201.67" stroke="hsl(228, 2.6%, 80.8%)" stroke-width="1.5"></path>
        <path d="M1419.05 362.52L1273.11 245.53" stroke="hsl(228, 2.6%, 80.8%)" stroke-width="1.5"></path>
        <path d="M1419.05 362.52L1605.49 341.96" stroke="hsl(228, 2.6%, 80.8%)" stroke-width="1.5"></path>
        <path d="M1457.64 546.68L1457.64 546.68" stroke="hsl(228, 2.6%, 80.8%)" stroke-width="1.5"></path>
        <path d="M1457.64 546.68L1602.63 540.34" stroke="hsl(228, 2.6%, 80.8%)" stroke-width="1.5"></path>
        <path d="M1457.64 546.68L1396.7 682.31" stroke="hsl(228, 2.6%, 80.8%)" stroke-width="1.5"></path>
        <path d="M1457.64 546.68L1419.05 362.52" stroke="hsl(228, 2.6%, 80.8%)" stroke-width="1.5"></path>
        <path d="M1457.64 546.68L1567.59 708.1" stroke="hsl(228, 2.6%, 80.8%)" stroke-width="1.5"></path>
        <path d="M1457.64 546.68L1291.6 688.2" stroke="hsl(228, 2.6%, 80.8%)" stroke-width="1.5"></path>
        <path d="M1396.7 682.31L1396.7 682.31" stroke="hsl(228, 2.6%, 80.8%)" stroke-width="1.5"></path>
        <path d="M1396.7 682.31L1567.59 708.1" stroke="hsl(228, 2.6%, 80.8%)" stroke-width="1.5"></path>
        <path d="M1396.7 682.31L1259.12 523.41" stroke="hsl(228, 2.6%, 80.8%)" stroke-width="1.5"></path>
        <path d="M1396.7 682.31L1602.63 540.34" stroke="hsl(228, 2.6%, 80.8%)" stroke-width="1.5"></path>
        <path d="M1396.7 682.31L1107.9 683.78" stroke="hsl(228, 2.6%, 80.8%)" stroke-width="1.5"></path>
        <path d="M1546.04 -95.84L1546.04 -95.84" stroke="hsl(228, 2.6%, 80.8%)" stroke-width="1.5"></path>
        <path d="M1546.04 -95.84L1552.18 111.19" stroke="hsl(228, 2.6%, 80.8%)" stroke-width="1.5"></path>
        <path d="M1546.04 -95.84L1608.4 188.85" stroke="hsl(228, 2.6%, 80.8%)" stroke-width="1.5"></path>
        <path d="M1546.04 -95.84L1444 201.67" stroke="hsl(228, 2.6%, 80.8%)" stroke-width="1.5"></path>
        <path d="M1552.18 111.19L1552.18 111.19" stroke="hsl(228, 2.6%, 80.8%)" stroke-width="1.5"></path>
        <path d="M1552.18 111.19L1608.4 188.85" stroke="hsl(228, 2.6%, 80.8%)" stroke-width="1.5"></path>
        <path d="M1608.4 188.85L1608.4 188.85" stroke="hsl(228, 2.6%, 80.8%)" stroke-width="1.5"></path>
        <path d="M1608.4 188.85L1605.49 341.96" stroke="hsl(228, 2.6%, 80.8%)" stroke-width="1.5"></path>
        <path d="M1608.4 188.85L1444 201.67" stroke="hsl(228, 2.6%, 80.8%)" stroke-width="1.5"></path>
        <path d="M1608.4 188.85L1419.05 362.52" stroke="hsl(228, 2.6%, 80.8%)" stroke-width="1.5"></path>
        <path d="M1605.49 341.96L1605.49 341.96" stroke="hsl(228, 2.6%, 80.8%)" stroke-width="1.5"></path>
        <path d="M1605.49 341.96L1602.63 540.34" stroke="hsl(228, 2.6%, 80.8%)" stroke-width="1.5"></path>
        <path d="M1605.49 341.96L1444 201.67" stroke="hsl(228, 2.6%, 80.8%)" stroke-width="1.5"></path>
        <path d="M1605.49 341.96L1552.18 111.19" stroke="hsl(228, 2.6%, 80.8%)" stroke-width="1.5"></path>
        <path d="M1602.63 540.34L1602.63 540.34" stroke="hsl(228, 2.6%, 80.8%)" stroke-width="1.5"></path>
        <path d="M1602.63 540.34L1567.59 708.1" stroke="hsl(228, 2.6%, 80.8%)" stroke-width="1.5"></path>
        <path d="M1602.63 540.34L1419.05 362.52" stroke="hsl(228, 2.6%, 80.8%)" stroke-width="1.5"></path>
        <path d="M1567.59 708.1L1567.59 708.1" stroke="hsl(228, 2.6%, 80.8%)" stroke-width="1.5"></path>
        <circle r="25" cx="-79.06" cy="523.13" fill="url(#SvgjsRadialGradient1037)"></circle>
        <circle r="25" cx="-81.64" cy="666.11" fill="url(#SvgjsRadialGradient1037)"></circle>
        <circle r="25" cx="77.15" cy="664.71" fill="url(#SvgjsRadialGradient1037)"></circle>
        <circle r="25" cx="497.83" cy="692.27" fill="url(#SvgjsRadialGradient1037)"></circle>
        <circle r="25" cx="1281.27" cy="78.82" fill="url(#SvgjsRadialGradient1037)"></circle>
        <circle r="25" cx="1444" cy="201.67" fill="url(#SvgjsRadialGradient1037)"></circle>
        <circle r="5" cx="47.61" cy="553.09" fill="#ceced0"></circle>
        <circle r="5" cx="206.77" cy="496.43" fill="#ceced0"></circle>
        <circle r="5" cx="252.32" cy="642.65" fill="#ceced0"></circle>
        <circle r="5" cx="400.38" cy="553.9" fill="#ceced0"></circle>
        <circle r="5" cx="350.94" cy="666.62" fill="#ceced0"></circle>
        <circle r="5" cx="496.2" cy="543.1" fill="#ceced0"></circle>
        <circle r="5" cx="672.76" cy="393.39" fill="#ceced0"></circle>
        <circle r="5" cx="712.43" cy="492.35" fill="#ceced0"></circle>
        <circle r="5" cx="687.26" cy="697.48" fill="#ceced0"></circle>
        <circle r="5" cx="821.51" cy="365.47" fill="#ceced0"></circle>
        <circle r="5" cx="831.79" cy="502.32" fill="#ceced0"></circle>
        <circle r="5" cx="859.88" cy="706.38" fill="#ceced0"></circle>
        <circle r="5" cx="966.37" cy="347.24" fill="#ceced0"></circle>
        <circle r="5" cx="983.53" cy="549.96" fill="#ceced0"></circle>
        <circle r="5" cx="948.49" cy="661.47" fill="#ceced0"></circle>
        <circle r="5" cx="1161.55" cy="-63.86" fill="#ceced0"></circle>
        <circle r="5" cx="1118.92" cy="220.79" fill="#ceced0"></circle>
        <circle r="5" cx="1159.44" cy="378.18" fill="#ceced0"></circle>
        <circle r="5" cx="1092.09" cy="543.11" fill="#ceced0"></circle>
        <circle r="5" cx="1107.9" cy="683.78" fill="#ceced0"></circle>
        <circle r="5" cx="1254.68" cy="-100.57" fill="#ceced0"></circle>
        <circle r="5" cx="1273.11" cy="245.53" fill="#ceced0"></circle>
        <circle r="5" cx="1248.29" cy="353.11" fill="#ceced0"></circle>
        <circle r="5" cx="1259.12" cy="523.41" fill="#ceced0"></circle>
        <circle r="5" cx="1291.6" cy="688.2" fill="#ceced0"></circle>
        <circle r="5" cx="1393" cy="-75.04" fill="#ceced0"></circle>
        <circle r="5" cx="1451.41" cy="40.33" fill="#ceced0"></circle>
        <circle r="5" cx="1419.05" cy="362.52" fill="#ceced0"></circle>
        <circle r="5" cx="1457.64" cy="546.68" fill="#ceced0"></circle>
        <circle r="5" cx="1396.7" cy="682.31" fill="#ceced0"></circle>
        <circle r="5" cx="1546.04" cy="-95.84" fill="#ceced0"></circle>
        <circle r="5" cx="1552.18" cy="111.19" fill="#ceced0"></circle>
        <circle r="5" cx="1608.4" cy="188.85" fill="#ceced0"></circle>
        <circle r="5" cx="1605.49" cy="341.96" fill="#ceced0"></circle>
        <circle r="5" cx="1602.63" cy="540.34" fill="#ceced0"></circle>
        <circle r="5" cx="1567.59" cy="708.1" fill="#ceced0"></circle>
    </g>
    <defs>
        <mask id="SvgjsMask1036">
            <rect width="1440" height="560" fill="#ffffff"></rect>
        </mask>
        <radialGradient id="SvgjsRadialGradient1037">
            <stop stop-color="#ffffff" offset="0.1"></stop>
            <stop stop-color="rgba(156, 157, 161, 1)" offset="0.2"></stop>
            <stop stop-color="rgba(156, 157, 161, 0)" offset="1"></stop>
        </radialGradient>
    </defs>
</svg>